<?xml version="1.0" encoding="UTF-8" standalone="no"?><svg width="100%" height="100%" viewBox="0 0 4167 1237" version="1.1" xmlns="http://www.w3.org/2000/svg" xmlns:xlink="http://www.w3.org/1999/xlink" xml:space="preserve" xmlns:serif="http://www.serif.com/" style="fill-rule:evenodd;clip-rule:evenodd;stroke-linejoin:round;stroke-miterlimit:2;"><rect id="ZD-Čistá---logo-varianta-č.-3" xmlns:www.serif.com="http://www.serif.com/" www.serif.com:id="ZD Čistá - logo varianta č. 3" x="0" y="0" width="4166.667" height="1236.667" style="fill:none;"></rect><clipPath id="_clip1"><rect x="0" y="0" width="4166.667" height="1236.667"></rect></clipPath><g clip-path="url(#_clip1)"><g><rect x="-0" y="0" width="4166.667" height="1236.667" style="fill:none;"></rect><g><path d="M993.93,376.649c-0,-74.515 -60.406,-134.922 -134.922,-134.922l-482.421,0c-74.515,0 -134.922,60.406 -134.922,134.922l0,482.421c0,74.515 60.406,134.922 134.922,134.922l482.421,-0c74.515,-0 134.922,-60.406 134.922,-134.922l0,-482.421Z" style="fill:#fff;fill-rule:nonzero;"></path><path d="M621.986,364.85c-0.632,0.102 -1.243,0.224 -1.854,0.326c-2.058,0.387 -4.116,0.795 -6.154,1.223c-0.611,0.143 -1.202,0.265 -1.814,0.387c-2.506,0.55 -4.992,1.121 -7.478,1.732c-0.469,0.122 -0.917,0.265 -1.386,0.387c-2.078,0.53 -4.157,1.08 -6.235,1.671c-0.652,0.183 -1.324,0.367 -1.997,0.571c-2.466,0.713 -4.911,1.467 -7.356,2.262c-0.122,0.02 -0.224,0.082 -0.326,0.102c-2.364,0.774 -4.687,1.569 -7.01,2.404c-0.652,0.245 -1.304,0.489 -1.977,0.713c-2.078,0.774 -4.157,1.569 -6.215,2.384c-0.346,0.143 -0.713,0.285 -1.08,0.428c-2.364,0.958 -4.727,1.956 -7.05,2.975c-0.611,0.265 -1.202,0.53 -1.793,0.795c-1.915,0.856 -3.81,1.732 -5.685,2.649c-0.53,0.245 -1.06,0.489 -1.589,0.754c-2.303,1.121 -4.585,2.262 -6.847,3.444c-0.469,0.245 -0.937,0.489 -1.386,0.734c-1.875,0.998 -3.749,2.038 -5.604,3.077c-0.591,0.326 -1.161,0.652 -1.752,0.978c-2.16,1.243 -4.32,2.527 -6.459,3.831c3.118,-0.489 7.01,-1.06 11.819,-1.732c9.271,-1.304 26.408,-3.729 30.076,-5.563l0.998,-1.019l1.814,-0.367c17.055,-3.546 32.929,-12.45 45.379,-25.328c-0.346,0.061 -0.693,0.122 -1.039,0.183Zm45.216,-3.994c-8.701,0 -17.402,0.448 -25.899,1.324c-1.161,1.589 -2.364,3.158 -3.607,4.687c-14.569,17.789 -34.498,30.178 -56.22,35.007c-4.442,2.69 -13.591,4.34 -34.967,7.356c-7.132,0.998 -15.975,2.262 -17.809,2.955c-1.854,0.774 -5.644,1.712 -19.073,2.669c-1.814,1.426 -3.647,2.853 -5.441,4.34c-0.571,0.469 -1.141,0.937 -1.712,1.426c-2.14,1.773 -4.238,3.566 -6.296,5.4c-0.143,0.122 -0.265,0.224 -0.387,0.346c-2.18,1.956 -4.3,3.953 -6.419,5.97c-0.53,0.509 -1.08,1.039 -1.61,1.549c-1.895,1.854 -3.77,3.729 -5.604,5.644c-0.183,0.183 -0.346,0.346 -0.509,0.53l2.404,0c14.631,0 55.832,-2.792 66.143,-7.152c4.442,-1.875 12.002,-3.851 20.764,-6.154c13.225,-3.464 33.235,-8.681 37.84,-13.286l0.897,-0.917l1.202,-0.469c21.172,-8.395 39.429,-23.168 52.817,-42.73c1.895,-2.771 3.688,-5.604 5.339,-8.497l-1.854,0Zm15.914,0c-2.69,5.339 -5.746,10.535 -9.149,15.507c-14.569,21.294 -34.396,37.453 -57.422,46.826c-7.01,5.991 -22.129,10.27 -42.445,15.588c-7.947,2.078 -15.446,4.035 -19.052,5.563c-13.408,5.685 -58.502,8.13 -70.993,8.13l-13.53,0c-0.937,1.121 -1.875,2.221 -2.812,3.342c-0.387,0.469 -0.754,0.958 -1.141,1.426c-1.426,1.793 -2.832,3.586 -4.218,5.42c-0.082,0.082 -0.143,0.183 -0.224,0.265c-1.426,1.895 -2.832,3.831 -4.218,5.767c-0.346,0.489 -0.713,0.998 -1.06,1.488c-1.263,1.793 -2.506,3.607 -3.709,5.441c-0.102,0.143 -0.204,0.265 -0.285,0.408l46.337,0c18.461,0 60.071,-3.668 77.33,-10.963c4.768,-2.017 11.003,-4.259 17.606,-6.622c16.954,-6.072 40.142,-14.386 48.966,-23.209l0.591,-0.591l0.734,-0.408c22.455,-12.756 41.487,-31.645 55.038,-54.63c3.546,-6.011 6.704,-12.287 9.455,-18.747l-25.797,0Zm39.205,0c-3.383,8.66 -7.458,17.076 -12.165,25.063c-14.508,24.595 -34.865,44.89 -58.909,58.706c-11.065,10.494 -34.233,18.808 -52.919,25.512c-6.439,2.303 -12.532,4.483 -16.954,6.358c-19.704,8.334 -63.963,11.961 -82.18,11.961l-54.039,0c-0.55,0.917 -1.1,1.834 -1.63,2.751c-0.245,0.469 -0.509,0.937 -0.774,1.386c-1.08,1.936 -2.16,3.892 -3.179,5.848c-0.082,0.122 -0.122,0.265 -0.204,0.387c-0.978,1.854 -1.915,3.729 -2.832,5.624c-0.245,0.469 -0.469,0.937 -0.713,1.406c-0.958,1.977 -1.895,3.973 -2.812,5.97c-0.02,0.061 -0.041,0.122 -0.061,0.183l81.405,0c25.96,0 65.797,-5.176 88.476,-14.794c1.977,-0.815 4.035,-1.691 6.174,-2.588c22.333,-9.353 52.959,-22.19 68.385,-37.616l0.734,-0.632c23.984,-17.381 43.199,-39.776 57.116,-66.571c4.85,-9.353 8.945,-19.052 12.226,-28.955l-25.145,0Zm38.186,0c-3.688,11.88 -8.456,23.515 -14.243,34.681c-14.529,27.977 -35.435,52.389 -60.458,70.606c-17.239,16.974 -48.864,30.239 -72.012,39.939c-2.119,0.897 -4.157,1.752 -6.113,2.567c-24.452,10.351 -65.471,15.772 -93.326,15.772l-86.602,0c-0.53,1.324 -1.06,2.649 -1.549,3.973c-0.306,0.815 -0.591,1.63 -0.876,2.445c-0.672,1.875 -1.324,3.749 -1.956,5.644c-0.306,0.876 -0.591,1.793 -0.897,2.69c-0.632,1.997 -1.243,3.994 -1.834,5.991c-0.204,0.713 -0.428,1.406 -0.632,2.119c-0.061,0.224 -0.102,0.448 -0.183,0.693l109.648,0c34.376,0 72.582,-7.132 99.683,-18.584c36.169,-15.303 64.717,-32.807 82.506,-50.616l0.326,-0.306c25.084,-21.762 44.951,-48.15 59.072,-78.492c5.889,-12.654 10.677,-25.797 14.243,-39.124l-24.799,0Zm-105.022,200.671c33.907,-14.325 64.33,-34.844 90.493,-60.967c26.082,-26.103 46.602,-56.546 60.967,-90.493c6.745,-15.935 12.022,-32.46 15.731,-49.21l-24.554,0c-3.831,15.14 -9.129,30.035 -15.792,44.36c-14.834,31.869 -35.7,59.623 -62.047,82.485c-19.195,19.154 -48.212,37.025 -86.275,53.122c-28.548,12.063 -68.609,19.562 -104.533,19.562l-112.786,0c-0.245,1.08 -0.509,2.16 -0.754,3.24c-0.183,0.835 -0.326,1.691 -0.509,2.527c-0.387,1.854 -0.734,3.729 -1.08,5.604c-0.183,0.937 -0.346,1.895 -0.509,2.832c-0.306,1.854 -0.591,3.709 -0.876,5.583c-0.122,0.876 -0.265,1.752 -0.367,2.629c-0.061,0.387 -0.102,0.774 -0.163,1.141l132.184,-0c38.41,0 75.72,-7.539 110.87,-22.415Zm-202.586,198.002c0.326,0.509 0.672,1.039 0.998,1.549c0.367,0.53 0.734,1.06 1.121,1.61c2.975,4.361 6.093,8.619 9.333,12.776c0.387,0.509 0.795,1.019 1.202,1.549c1.019,1.284 2.058,2.567 3.097,3.831c0.326,0.408 0.672,0.815 0.998,1.223c0.306,0.346 0.591,0.672 0.876,1.019l13.53,0c12.491,0 57.585,2.466 70.993,8.13c3.607,1.528 11.105,3.505 19.052,5.583c20.316,5.298 35.435,9.577 42.445,15.568c23.026,9.373 42.852,25.553 57.422,46.826c3.403,4.972 6.459,10.188 9.149,15.507l25.797,0c-2.751,-6.459 -5.909,-12.736 -9.455,-18.747c-13.551,-22.985 -32.583,-41.874 -55.038,-54.63l-0.734,-0.408l-0.591,-0.591c-8.823,-8.823 -32.012,-17.137 -48.966,-23.209c-6.602,-2.364 -12.837,-4.605 -17.606,-6.622c-17.259,-7.295 -58.869,-10.963 -77.33,-10.963l-46.296,0Zm93.611,66.795c21.375,3.016 30.524,4.666 34.967,7.356c21.722,4.829 41.65,17.218 56.22,35.007c1.263,1.549 2.445,3.118 3.607,4.687c8.497,0.876 17.178,1.324 25.899,1.324l1.854,0c-1.651,-2.894 -3.444,-5.726 -5.339,-8.477c-13.388,-19.582 -31.645,-34.355 -52.817,-42.751l-1.202,-0.469l-0.897,-0.897c-4.605,-4.626 -24.615,-9.842 -37.84,-13.306c-8.762,-2.282 -16.322,-4.259 -20.764,-6.133c-10.311,-4.381 -51.513,-7.152 -66.143,-7.152l-2.384,0c0.509,0.53 1.019,1.039 1.528,1.569c1.345,1.386 2.71,2.751 4.096,4.096c0.693,0.693 1.406,1.386 2.119,2.078c1.895,1.814 3.831,3.627 5.787,5.379c0.571,0.509 1.141,1.019 1.712,1.528c1.834,1.61 3.688,3.22 5.563,4.789c0.571,0.469 1.141,0.958 1.712,1.426c1.814,1.467 3.627,2.914 5.441,4.34c13.428,0.937 17.218,1.875 19.052,2.649c1.854,0.693 10.698,1.956 17.83,2.955Zm-7.112,14.366c0.591,0.346 1.182,0.672 1.752,1.019c1.875,1.039 3.729,2.058 5.604,3.057c0.448,0.245 0.917,0.489 1.386,0.734c2.282,1.182 4.564,2.343 6.847,3.464c0.53,0.245 1.039,0.489 1.569,0.734c1.895,0.917 3.81,1.793 5.726,2.649c0.591,0.265 1.161,0.53 1.752,0.774c2.343,1.039 4.707,2.038 7.112,3.016c0.326,0.122 0.652,0.245 0.978,0.387c2.099,0.835 4.198,1.63 6.337,2.404c0.632,0.245 1.263,0.469 1.895,0.693c2.364,0.856 4.748,1.691 7.132,2.466c0.082,0.02 0.143,0.041 0.204,0.061c2.466,0.795 4.931,1.549 7.438,2.282c0.632,0.183 1.263,0.367 1.895,0.55c2.119,0.591 4.238,1.161 6.358,1.712c0.428,0.102 0.856,0.224 1.284,0.326c2.506,0.632 5.013,1.202 7.539,1.773c0.571,0.122 1.141,0.245 1.732,0.346c2.078,0.448 4.136,0.856 6.235,1.243c0.591,0.102 1.202,0.224 1.793,0.326c0.346,0.061 0.713,0.122 1.06,0.183c-12.45,-12.878 -28.324,-21.783 -45.379,-25.328l-1.814,-0.367l-0.998,-0.998c-3.668,-1.854 -20.805,-4.259 -30.076,-5.583c-4.809,-0.672 -8.701,-1.223 -11.819,-1.732c2.14,1.304 4.279,2.567 6.459,3.81Zm-103.759,-111.4c0.652,1.345 1.324,2.69 1.997,4.035c0.346,0.672 0.713,1.365 1.06,2.058c0.652,1.304 1.345,2.567 2.017,3.851c0.387,0.693 0.754,1.386 1.141,2.099c0.713,1.284 1.426,2.547 2.16,3.831c0.346,0.611 0.713,1.243 1.08,1.854c0.02,0.041 0.041,0.061 0.061,0.102l54.039,0c18.217,0 62.475,3.607 82.18,11.941c4.422,1.875 10.514,4.055 16.954,6.358c18.686,6.704 41.854,15.018 52.919,25.512c24.045,13.815 44.401,34.111 58.909,58.726c4.707,7.967 8.782,16.383 12.165,25.043l25.145,0c-3.281,-9.903 -7.376,-19.603 -12.226,-28.955c-13.917,-26.796 -33.133,-49.19 -57.116,-66.571l-0.734,-0.632c-15.425,-15.405 -46.052,-28.242 -68.385,-37.616c-2.14,-0.897 -4.198,-1.752 -6.174,-2.588c-22.679,-9.597 -62.516,-14.794 -88.476,-14.794l-81.405,0c0.713,1.549 1.426,3.097 2.16,4.626c0.183,0.367 0.346,0.754 0.53,1.121Zm-15.812,-41.711c0.061,0.245 0.122,0.469 0.183,0.693c0.204,0.713 0.428,1.447 0.652,2.16c0.571,1.956 1.182,3.912 1.793,5.869c0.061,0.183 0.122,0.387 0.183,0.571c0.245,0.754 0.489,1.488 0.734,2.221c0.632,1.875 1.263,3.749 1.936,5.604c0.265,0.713 0.509,1.406 0.774,2.099c0.163,0.469 0.346,0.937 0.53,1.426c0.367,0.978 0.754,1.936 1.141,2.914l86.602,0c27.855,0 68.874,5.42 93.326,15.772c1.956,0.815 3.994,1.671 6.113,2.567c23.148,9.699 54.773,22.965 72.012,39.939c25.023,18.237 45.929,42.628 60.458,70.606c5.787,11.166 10.555,22.802 14.243,34.681l24.799,0c-3.566,-13.326 -8.354,-26.449 -14.243,-39.103c-14.121,-30.341 -33.989,-56.77 -59.072,-78.512l-0.326,-0.306c-17.789,-17.809 -46.337,-35.313 -82.506,-50.596c-27.101,-11.472 -65.308,-18.604 -99.683,-18.604l-109.648,0Zm387.119,137.91c-14.366,-33.948 -34.885,-64.391 -60.967,-90.473c-26.164,-26.143 -56.586,-46.663 -90.493,-60.988c-35.15,-14.875 -72.46,-22.415 -110.87,-22.415l-132.205,0c0.02,0.163 0.061,0.306 0.061,0.469c0.285,2.078 0.591,4.157 0.917,6.215c0.082,0.469 0.163,0.958 0.245,1.426c0.285,1.814 0.611,3.607 0.937,5.42c0.102,0.55 0.204,1.121 0.326,1.671c0.346,1.732 0.693,3.464 1.06,5.196c0.122,0.55 0.245,1.1 0.367,1.651c0.102,0.509 0.224,0.998 0.346,1.508l112.806,0c35.924,0 75.985,7.499 104.533,19.562c38.064,16.098 67.081,33.968 86.275,53.122c26.347,22.883 47.213,50.636 62.047,82.485c6.663,14.325 11.961,29.22 15.792,44.36l24.554,0c-3.709,-16.729 -8.986,-33.275 -15.731,-49.21Zm29.445,-469.665c-3.892,20.132 -9.944,40 -18.013,59.093c-14.977,35.415 -36.393,67.182 -63.637,94.426c-27.285,27.264 -59.052,48.66 -94.426,63.616c-36.678,15.527 -75.618,23.413 -115.7,23.413l-133.509,0c-0.428,5.033 -0.713,10.148 -0.835,15.283l0,12.409c0.122,5.074 0.408,10.127 0.815,15.12l133.529,0c40.081,0 79.021,7.886 115.7,23.413c35.374,14.957 67.142,36.352 94.426,63.616c27.244,27.244 48.66,59.011 63.637,94.426c8.069,19.093 14.142,38.981 18.013,59.093l1.426,7.397l-7.519,0l0,0.143l-163.096,0c-5.583,0 -11.126,-0.204 -16.627,-0.53l0.143,0.204l-4.259,-0.469c-53.245,-4.075 -102.19,-23.698 -142.332,-54.325c-0.204,-0.143 -0.408,-0.306 -0.611,-0.448l-16.301,-12.491l1.284,0.082c-0.163,-0.122 -0.306,-0.245 -0.448,-0.387c-0.591,-0.509 -1.161,-1.039 -1.732,-1.549c-0.245,-0.224 -0.469,-0.448 -0.713,-0.652c-2.853,-2.608 -5.665,-5.257 -8.395,-7.988c-4.972,-4.931 -9.74,-10.066 -14.305,-15.364l-0.02,-0.02l-8.803,-10.25l0.448,0c-6.622,-8.497 -12.756,-17.402 -18.258,-26.551c-0.02,0 -0.02,-0.02 -0.02,-0.02l-5.644,-9.394l0.245,0c-0.734,-1.345 -1.467,-2.71 -2.201,-4.075c-4.014,-7.601 -7.641,-15.425 -10.902,-23.352l0,-0.02l-3.505,-8.538l0.183,0c-0.571,-1.528 -1.121,-3.077 -1.671,-4.626c-0.224,-0.652 -0.448,-1.324 -0.672,-1.977c-0.102,-0.285 -0.204,-0.591 -0.285,-0.876c-0.571,-1.671 -1.121,-3.362 -1.651,-5.033c-0.102,-0.367 -0.224,-0.734 -0.346,-1.08c-0.571,-1.875 -1.121,-3.729 -1.651,-5.604c-0.183,-0.652 -0.367,-1.284 -0.55,-1.915c-0.306,-1.161 -0.632,-2.323 -0.937,-3.484c-0.265,-0.998 -0.53,-2.017 -0.774,-3.016c-0.061,-0.224 -0.122,-0.428 -0.163,-0.632l0,-0.02l-1.915,-7.702l0.122,0c-0.061,-0.265 -0.122,-0.53 -0.163,-0.795c-0.082,-0.306 -0.143,-0.591 -0.204,-0.897c-0.611,-2.934 -1.202,-5.889 -1.712,-8.864c-0.02,-0.041 -0.02,-0.082 -0.02,-0.143c-0.489,-2.792 -0.937,-5.604 -1.345,-8.456c-0.061,-0.428 -0.122,-0.897 -0.183,-1.324c-0.469,-3.362 -0.876,-6.745 -1.202,-10.127l-0.55,-5.379l0.061,0c-0.55,-7.03 -0.835,-14.142 -0.835,-21.335c0,-7.193 0.285,-14.406 0.835,-21.477l-0.061,0l0.693,-6.847c1.019,-9.781 2.608,-19.541 4.707,-29.139l-0.143,0l1.915,-7.702c0.387,-1.569 0.774,-3.118 1.202,-4.687c2.119,-7.947 4.626,-15.833 7.499,-23.576l-0.183,0l3.505,-8.558c3.729,-9.129 8.008,-18.095 12.756,-26.796c0.122,-0.204 0.224,-0.408 0.346,-0.611l-0.245,0l5.644,-9.394l0,-0.02c2.914,-4.85 6.011,-9.618 9.251,-14.305c2.873,-4.177 5.909,-8.253 9.027,-12.267l-0.448,0l8.823,-10.27c7.927,-9.21 16.505,-17.87 25.593,-25.94l-1.284,0.082l16.301,-12.491c4.85,-3.729 9.822,-7.275 14.916,-10.637c3.179,-2.119 6.439,-4.136 9.699,-6.113c30.586,-18.461 64.574,-30.687 100.009,-35.843c3.016,-0.428 6.052,-0.815 9.068,-1.161l13.51,-1.488l-0.224,0.367c5.522,-0.346 11.105,-0.53 16.709,-0.53l170.615,0l-1.426,7.376" style="fill:#2d6a2d;fill-rule:nonzero;"></path></g><path d="M2281.031,763.281c-35.944,0 -68.302,-7.794 -97.072,-23.382c-28.741,-15.618 -51.488,-38.454 -68.257,-68.493c-16.74,-30.069 -25.095,-66.899 -25.095,-110.475c0,-43.886 8.458,-80.908 25.39,-111.066c16.917,-30.143 39.797,-52.979 68.612,-68.493c28.844,-15.544 60.995,-23.323 96.422,-23.323c24.711,0 47.473,3.41 68.257,10.215c20.814,6.776 39.059,16.592 54.736,29.464c15.706,12.872 28.431,28.667 38.203,47.355c9.802,18.703 15.942,39.856 18.422,63.475l-108.999,0c-1.033,-8.621 -3.351,-16.415 -6.967,-23.382c-3.631,-6.967 -8.311,-12.946 -14.053,-17.95c-5.713,-5.034 -12.503,-8.872 -20.371,-11.514c-7.838,-2.672 -16.592,-4.015 -26.276,-4.015c-17.832,0 -32.977,4.34 -45.406,12.99c-12.4,8.621 -21.788,21.109 -28.165,37.435c-6.347,16.297 -9.506,35.9 -9.506,58.81c0,23.825 3.262,43.797 9.802,59.932c6.525,16.149 15.913,28.313 28.165,36.49c12.237,8.193 27.102,12.282 44.58,12.282c9.875,0 18.688,-1.314 26.453,-3.956c7.75,-2.628 14.525,-6.451 20.312,-11.455c5.816,-5.034 10.584,-11.042 14.289,-18.009c3.735,-6.967 6.288,-14.776 7.676,-23.441l108.999,0c-1.579,18.349 -6.598,36.372 -15.057,54.086c-8.473,17.714 -20.297,33.863 -35.487,48.418c-15.16,14.57 -33.538,26.216 -55.149,34.955c-21.581,8.695 -46.395,13.049 -74.457,13.049Zm-36.727,-521.554l35.959,43.34l36.786,-43.34l84.908,0l0,1.299l-84.141,84.908l-74.811,0l-83.845,-84.908l0,-1.299l85.144,0Zm400.167,121.93l0,394.074l-107.641,0l0,-394.074l107.641,0Zm246.053,399.093c-34.571,0 -64.596,-5.107 -90.104,-15.352c-25.478,-10.23 -45.141,-25.833 -58.987,-46.824c-13.817,-20.976 -20.829,-47.591 -21.02,-79.83l102.091,0c0.709,11.617 3.794,21.537 9.27,29.759c5.462,8.193 13.079,14.348 22.851,18.481c9.802,4.133 21.493,6.2 35.073,6.2c11.455,0 21.139,-1.388 29.051,-4.192c7.942,-2.834 14.053,-6.746 18.304,-11.75c4.251,-5.034 6.377,-10.894 6.377,-17.596c0,-6.023 -1.993,-11.307 -5.964,-15.883c-3.986,-4.606 -10.436,-8.754 -19.367,-12.459c-8.901,-3.69 -20.651,-6.967 -35.251,-9.802l-39.443,-8.148c-35.634,-7.44 -63.445,-20.268 -83.432,-38.498c-20.002,-18.26 -29.995,-42.646 -29.995,-73.158c0,-25.036 6.761,-46.971 20.312,-65.836c13.581,-18.85 32.357,-33.538 56.33,-44.048c24.002,-10.51 51.695,-15.765 83.078,-15.765c32.077,0 59.755,5.299 83.019,15.883c23.294,10.599 41.288,25.596 53.968,44.993c12.71,19.411 19.249,42.144 19.603,68.198l-102.386,0c-0.871,-13.02 -5.816,-23.205 -14.821,-30.527c-8.975,-7.322 -22.009,-10.983 -39.089,-10.983c-10.791,0 -19.81,1.343 -27.043,4.015c-7.204,2.642 -12.621,6.303 -16.238,10.983c-3.631,4.65 -5.432,9.964 -5.432,15.942c0,6.377 1.845,11.854 5.55,16.415c3.735,4.576 9.654,8.547 17.773,11.927c8.104,3.351 18.422,6.347 30.94,8.975l32.239,6.613c21.877,4.576 40.698,10.51 56.448,17.832c15.78,7.322 28.696,15.972 38.734,25.921c10.067,9.964 17.448,21.257 22.142,33.892c4.679,12.606 7.026,26.482 7.026,41.628c0,26.305 -6.436,48.624 -19.308,66.958c-12.872,18.304 -31.353,32.224 -55.444,41.746c-24.061,9.521 -53.009,14.289 -86.857,14.289Zm226.934,-311.291l0,-87.802l340.696,0l0,87.802l-116.675,0l0,306.272l-107.405,0l0,-306.272l-116.616,0Zm540.389,232.996l-21.171,73.276l-119.568,0l128.839,-394.074l146.257,0l132.795,394.074l-121.694,0l-21.793,-73.276l-123.664,0Zm99.594,-80.952c-9.581,-32.712 -18.675,-66.329 -27.294,-100.851c-4.048,-16.281 -8.013,-32.568 -11.895,-48.861c-3.612,16.292 -7.265,32.58 -10.956,48.861c-7.848,34.522 -16.529,68.139 -26.056,100.851l76.202,-0Zm-73.941,-275.568l40.447,-86.207l92.348,0l-62.943,86.207l-69.852,0Zm-2428.577,342.805c5.765,-0.196 11.522,-0.328 17.272,-0.396c19.913,-0.266 39.753,-0.413 59.518,-0.413l114.549,0l0,87.802l-322.982,0l0,-64.537l146.552,-189.656c11.455,-14.998 24.15,-30.025 38.085,-45.111c2.37,-2.564 4.746,-5.126 7.126,-7.686c-4.361,0.142 -8.724,0.243 -13.09,0.305c-18.777,0.28 -37.524,0.413 -56.212,0.413l-121.104,0l0,-87.802l321.624,0l0,64.537l-143.364,186.704c-12.016,15.514 -25.154,31.043 -39.443,46.587l-8.533,9.253Zm428.039,86.992l-152.339,0l0,-394.074l150.745,0c40.579,0 75.668,7.942 105.279,23.796c29.641,15.869 52.522,38.528 68.671,67.962c16.134,29.449 24.209,64.626 24.209,105.515c0,40.742 -8.03,75.845 -24.091,105.279c-16.061,29.449 -38.779,52.064 -68.139,67.844c-29.331,15.795 -64.109,23.677 -104.334,23.677Zm-44.698,-303.084l0,212.094l40.21,0c20.105,0 37.081,-3.248 50.898,-9.743c13.846,-6.525 24.297,-17.507 31.353,-32.948c7.041,-15.426 10.569,-36.461 10.569,-63.12c0,-26.807 -3.631,-47.916 -10.864,-63.356c-7.204,-15.426 -17.95,-26.423 -32.239,-33.007c-14.289,-6.613 -31.929,-9.92 -52.905,-9.92l-37.022,0Z" style="fill:#fff;"></path><path d="M1433.895,923.651c0.024,0.938 0.046,1.9 0.064,2.885c0.074,2.339 0.118,4.679 0.118,7.048c0.03,2.369 0.074,4.664 0.118,6.87c0.03,2.221 0.059,4.234 0.059,6.041l0,47.023l-9.89,0l0,-82.084l14.51,0l20.432,52.057c0.474,1.229 1.007,2.754 1.599,4.56c0.592,1.777 1.244,3.701 1.954,5.745c0.711,2.058 1.362,4.086 1.954,6.1l0.507,1.647l0.441,-1.469c0.622,-1.969 1.273,-3.983 1.954,-6.041l2.014,-5.922c0.622,-1.851 1.184,-3.391 1.658,-4.619l20.077,-52.057l14.569,0l0,82.084l-10.186,0l0,-52.768c0.03,-2.162 0.074,-4.397 0.118,-6.692c0.074,-2.325 0.133,-4.693 0.178,-7.107c0.038,-1.245 0.073,-2.474 0.103,-3.684c-0.465,1.452 -0.953,2.916 -1.465,4.394c-0.874,2.576 -1.717,5.064 -2.547,7.462c-0.8,2.369 -1.54,4.531 -2.25,6.455c-0.711,1.94 -1.333,3.583 -1.836,4.916l-18.478,47.023l-8.884,0l-18.774,-47.023c-0.518,-1.303 -1.125,-2.902 -1.836,-4.797c-0.681,-1.925 -1.421,-4.057 -2.25,-6.396c-0.829,-2.369 -1.703,-4.856 -2.606,-7.462c-0.466,-1.391 -0.941,-2.787 -1.427,-4.188Zm496.778,-36.38l7.936,9.653l7.817,-9.653l9.772,0l0,0.355l-12.97,14.806l-9.357,0l-12.911,-14.806l0,-0.355l9.713,0Zm-307.85,0l7.936,9.653l7.817,-9.653l9.772,0l0,0.355l-12.97,14.806l-9.357,0l-12.911,-14.806l0,-0.355l9.713,0Zm742.507,79.271l0,26.976l-10.364,0l0,-82.084l10.364,0l0,28.19l-0.148,14.694c0.798,-1.011 1.597,-2 2.398,-2.967c1.895,-2.28 3.805,-4.531 5.745,-6.751c1.969,-2.25 3.968,-4.457 5.982,-6.633l24.637,-26.532l13.562,0l-33.204,35.504l33.263,46.58l-12.259,0l-28.14,-39.552l-11.836,12.576Zm-452.365,26.976l0,-82.084l50.754,0l0,9.12l-40.39,0l0,26.828l37.548,0l0,9.18l-37.548,0l0,27.835l40.746,0l0,9.12l-51.11,0Zm147.26,0l0,-82.084l10.364,0l0,72.963l38.318,0l0,9.12l-48.682,0Zm449.602,0l0,-82.084l50.754,0l0,9.12l-40.39,0l0,26.828l37.548,0l0,9.18l-37.548,0l0,27.835l40.746,0l0,9.12l-51.11,0Zm-1374.748,-8.955c1.955,-0.07 3.903,-0.106 5.852,-0.106c3.272,-0.03 6.544,-0.059 9.831,-0.059l30.855,0l0,9.12l-58.335,0l0,-7.581l38.081,-54.722c1.688,-2.399 3.465,-4.812 5.33,-7.225l2.721,-3.583c-1.989,0.081 -3.983,0.13 -5.978,0.148l-40.094,0l0,-9.12l57.861,0l0,7.699l-37.429,53.716c-1.821,2.576 -3.716,5.152 -5.685,7.758c-1.004,1.333 -2.007,2.65 -3.009,3.956Zm642.88,8.955l-25.585,0l0,-82.084l26.591,0c8.01,0 14.835,1.643 20.491,4.916c5.685,3.287 10.038,7.98 13.088,14.095c3.035,6.085 4.56,13.37 4.56,21.853c0,8.573 -1.54,15.931 -4.619,22.09c-3.05,6.159 -7.492,10.897 -13.325,14.214c-5.804,3.287 -12.881,4.916 -21.202,4.916Zm-15.22,-72.963l0,63.843l14.51,0c6.707,0 12.259,-1.273 16.642,-3.85c4.412,-2.606 7.714,-6.292 9.89,-11.075c2.162,-4.767 3.257,-10.497 3.257,-17.175c0,-6.544 -1.096,-12.2 -3.257,-16.938c-2.132,-4.738 -5.33,-8.38 -9.594,-10.956c-4.234,-2.561 -9.535,-3.85 -15.931,-3.85l-15.517,0Zm768.349,-17.056l7.699,-16.227l11.016,0l-10.719,16.227l-7.995,0Zm-1253.984,90.02l0,-82.084l50.754,0l0,9.12l-40.39,0l0,26.828l37.548,0l0,9.18l-37.548,0l0,27.835l40.746,0l0,9.12l-51.11,0Zm328.01,0l0,-82.084l50.754,0l0,9.12l-40.39,0l0,26.828l37.548,0l0,9.18l-37.548,0l0,27.835l40.746,0l0,9.12l-51.11,0Zm624.543,1.421c-5.967,0 -11.164,-0.992 -15.576,-2.961c-4.427,-2.014 -7.877,-4.812 -10.364,-8.41c-2.458,-3.583 -3.82,-7.788 -4.086,-12.615l10.601,0c0.237,3.242 1.214,5.967 2.961,8.173c1.777,2.176 4.101,3.82 6.988,4.916c2.872,1.066 6.041,1.599 9.476,1.599c3.79,0 7.166,-0.592 10.127,-1.777c2.961,-1.214 5.286,-2.917 6.988,-5.093c1.688,-2.206 2.547,-4.767 2.547,-7.699c0,-2.561 -0.696,-4.679 -2.073,-6.337c-1.392,-1.658 -3.302,-3.035 -5.745,-4.146c-2.458,-1.096 -5.256,-2.088 -8.41,-2.961l-9.772,-2.665c-6.988,-1.895 -12.318,-4.575 -15.99,-8.054c-3.672,-3.465 -5.508,-7.951 -5.508,-13.444c0,-4.649 1.214,-8.721 3.672,-12.2c2.443,-3.465 5.804,-6.159 10.068,-8.054c4.264,-1.925 9.076,-2.902 14.451,-2.902c5.478,0 10.305,0.977 14.451,2.902c4.175,1.94 7.462,4.619 9.831,8.054c2.399,3.405 3.672,7.284 3.79,11.667l-10.127,0c-0.444,-4.264 -2.339,-7.551 -5.685,-9.89c-3.317,-2.369 -7.521,-3.553 -12.615,-3.553c-3.524,0 -6.618,0.592 -9.298,1.777c-2.695,1.155 -4.782,2.754 -6.278,4.797c-1.466,2.014 -2.191,4.323 -2.191,6.929c0,2.695 0.8,4.886 2.428,6.574c1.658,1.703 3.687,3.065 6.1,4.086c2.443,1.036 4.886,1.88 7.344,2.547l8.41,2.25c2.606,0.681 5.271,1.584 7.995,2.724c2.724,1.11 5.226,2.532 7.521,4.264c2.325,1.703 4.205,3.835 5.626,6.396c1.451,2.576 2.191,5.656 2.191,9.239c0,4.59 -1.184,8.676 -3.553,12.259c-2.369,3.598 -5.789,6.441 -10.246,8.528c-4.427,2.043 -9.772,3.08 -16.05,3.08Zm709.345,-33.402l0,31.981l-10.364,0l0,-82.084l28.605,0c6.233,0 11.43,1.096 15.576,3.257c4.146,2.132 7.24,5.093 9.298,8.884c2.043,3.79 3.08,8.158 3.08,13.088c0,4.975 -1.051,9.342 -3.139,13.088c-2.102,3.716 -5.212,6.618 -9.357,8.706c-1.01,0.502 -2.083,0.941 -3.218,1.32l18.438,33.74l-12.022,0l-17.181,-32.004c-0.523,0.015 -1.054,0.023 -1.592,0.023l-18.122,0Zm0,-9.18l17.826,0c4.22,0 7.655,-0.622 10.305,-1.895c2.635,-1.258 4.59,-3.05 5.863,-5.389c1.258,-2.369 1.895,-5.167 1.895,-8.41c0,-3.272 -0.637,-6.115 -1.895,-8.528c-1.273,-2.399 -3.242,-4.264 -5.922,-5.567c-2.65,-1.333 -6.1,-2.014 -10.364,-2.014l-17.708,0l0,31.803Zm788.262,32.439c1.555,-5.291 2.925,-9.787 4.118,-13.487c1.495,-4.575 2.724,-8.247 3.672,-11.016l16.997,-48.859l10.956,0l-29.849,82.084l-11.904,0l-30.204,-82.084l10.897,0l17.412,48.859c0.977,2.769 2.206,6.455 3.672,11.075c1.213,3.748 2.621,8.226 4.232,13.428Zm161.195,9.906c-7.077,0 -13.37,-1.717 -18.892,-5.152c-5.537,-3.465 -9.876,-8.365 -13.029,-14.687c-3.168,-6.307 -4.738,-13.755 -4.738,-22.327c0,-8.602 1.569,-16.064 4.738,-22.386c3.154,-6.307 7.492,-11.193 13.029,-14.628c5.523,-3.465 11.815,-5.212 18.892,-5.212c7.062,0 13.34,1.747 18.833,5.212c5.478,3.435 9.801,8.321 12.97,14.628c3.154,6.322 4.738,13.784 4.738,22.386c0,8.573 -1.584,16.02 -4.738,22.327c-3.168,6.322 -7.492,11.223 -12.97,14.687c-5.493,3.435 -11.771,5.152 -18.833,5.152Zm0,-9.594c4.886,0 9.328,-1.244 13.325,-3.731c3.983,-2.517 7.166,-6.189 9.535,-11.016c2.369,-4.856 3.553,-10.793 3.553,-17.826c0,-7.062 -1.184,-13.029 -3.553,-17.885c-2.369,-4.856 -5.552,-8.528 -9.535,-11.016c-3.998,-2.517 -8.439,-3.79 -13.325,-3.79c-4.945,0 -9.417,1.273 -13.444,3.79c-3.998,2.532 -7.166,6.218 -9.535,11.075c-2.369,4.827 -3.553,10.764 -3.553,17.826c0,7.033 1.184,12.955 3.553,17.767c2.369,4.827 5.537,8.499 9.535,11.016c4.027,2.532 8.499,3.79 13.444,3.79Zm-626.763,-97.837l7.936,9.653l7.817,-9.653l9.772,0l0,0.355l-12.97,14.806l-9.357,0l-12.911,-14.806l0,-0.355l9.713,0Zm-9.286,97.292c1.955,-0.07 3.903,-0.106 5.852,-0.106c3.272,-0.03 6.544,-0.059 9.831,-0.059l30.855,0l0,9.12l-58.335,0l0,-7.581l38.081,-54.722c1.688,-2.399 3.465,-4.812 5.33,-7.225l2.721,-3.583c-1.989,0.081 -3.983,0.13 -5.978,0.148l-40.094,0l0,-9.12l57.861,0l0,7.699l-37.429,53.716c-1.821,2.576 -3.716,5.152 -5.685,7.758c-1.004,1.333 -2.007,2.65 -3.009,3.956Zm168.439,10.376c-5.967,0 -11.164,-0.992 -15.576,-2.961c-4.427,-2.014 -7.877,-4.812 -10.364,-8.41c-2.458,-3.583 -3.82,-7.788 -4.086,-12.615l10.601,0c0.237,3.242 1.214,5.967 2.961,8.173c1.777,2.176 4.101,3.82 6.988,4.916c2.872,1.066 6.041,1.599 9.476,1.599c3.79,0 7.166,-0.592 10.127,-1.777c2.961,-1.214 5.286,-2.917 6.988,-5.093c1.688,-2.206 2.547,-4.767 2.547,-7.699c0,-2.561 -0.696,-4.679 -2.073,-6.337c-1.392,-1.658 -3.302,-3.035 -5.745,-4.146c-2.458,-1.096 -5.256,-2.088 -8.41,-2.961l-9.772,-2.665c-6.988,-1.895 -12.318,-4.575 -15.99,-8.054c-3.672,-3.465 -5.508,-7.951 -5.508,-13.444c0,-4.649 1.214,-8.721 3.672,-12.2c2.443,-3.465 5.804,-6.159 10.068,-8.054c4.264,-1.925 9.076,-2.902 14.451,-2.902c5.478,0 10.305,0.977 14.451,2.902c4.175,1.94 7.462,4.619 9.831,8.054c2.399,3.405 3.672,7.284 3.79,11.667l-10.127,0c-0.444,-4.264 -2.339,-7.551 -5.685,-9.89c-3.317,-2.369 -7.521,-3.553 -12.615,-3.553c-3.524,0 -6.618,0.592 -9.298,1.777c-2.695,1.155 -4.782,2.754 -6.278,4.797c-1.466,2.014 -2.191,4.323 -2.191,6.929c0,2.695 0.8,4.886 2.428,6.574c1.658,1.703 3.687,3.065 6.1,4.086c2.443,1.036 4.886,1.88 7.344,2.547l8.41,2.25c2.606,0.681 5.271,1.584 7.995,2.724c2.724,1.11 5.226,2.532 7.521,4.264c2.325,1.703 4.205,3.835 5.626,6.396c1.451,2.576 2.191,5.656 2.191,9.239c0,4.59 -1.184,8.676 -3.553,12.259c-2.369,3.598 -5.789,6.441 -10.246,8.528c-4.427,2.043 -9.772,3.08 -16.05,3.08Zm120.57,-74.385l0,-9.12l62.362,0l0,9.12l-25.94,0l0,72.963l-10.364,0l0,-72.963l-26.058,0Zm-428.531,74.266c-6.396,0 -12.022,-1.273 -16.879,-3.79c-4.827,-2.517 -8.558,-5.982 -11.193,-10.364c-2.65,-4.412 -3.968,-9.446 -3.968,-15.102l0,-54.13l10.364,0l0,53.301c0,3.998 0.859,7.521 2.606,10.601c1.732,3.08 4.22,5.508 7.462,7.284c3.272,1.747 7.166,2.606 11.667,2.606c4.501,0 8.365,-0.888 11.608,-2.665c3.228,-1.777 5.7,-4.175 7.403,-7.225c1.732,-3.08 2.606,-6.603 2.606,-10.601l0,-53.301l10.364,0l0,54.13c0,5.656 -1.333,10.69 -3.968,15.102c-2.65,4.383 -6.381,7.847 -11.193,10.364c-4.782,2.517 -10.409,3.79 -16.879,3.79Zm-319.255,-1.303l-25.585,0l0,-82.084l26.591,0c8.01,0 14.835,1.643 20.491,4.916c5.685,3.287 10.038,7.98 13.088,14.095c3.035,6.085 4.56,13.37 4.56,21.853c0,8.573 -1.54,15.931 -4.619,22.09c-3.05,6.159 -7.492,10.897 -13.325,14.214c-5.804,3.287 -12.881,4.916 -21.202,4.916Zm-15.22,-72.963l0,63.843l14.51,0c6.707,0 12.259,-1.273 16.642,-3.85c4.412,-2.606 7.714,-6.292 9.89,-11.075c2.162,-4.767 3.257,-10.497 3.257,-17.175c0,-6.544 -1.096,-12.2 -3.257,-16.938c-2.132,-4.738 -5.33,-8.38 -9.594,-10.956c-4.234,-2.561 -9.535,-3.85 -15.931,-3.85l-15.517,0Z" style="fill:#fff;"></path></g></g></svg>